HIERARCHY
ROOT Hips
{
  OFFSET -1.56614 0.00 -1.85809
  CHANNELS 6 Xposition Yposition Zposition Zrotation Xrotation Yrotation
  JOINT LHipJoint
  {
    OFFSET 0 0 0
    CHANNELS 3 Zrotation Xrotation Yrotation
    JOINT LeftUpLeg
    {
      OFFSET 1.8 -1.4 0.085
      CHANNELS 3 Zrotation Xrotation Yrotation
      JOINT LeftLeg
      {
        OFFSET 2.215 -6 0
        CHANNELS 3 Zrotation Xrotation Yrotation
        JOINT LeftFoot
        {
          OFFSET 2.5 -6.9 0
          CHANNELS 3 Zrotation Xrotation Yrotation
          JOINT LeftToeBase
          {
            OFFSET 0.2 -0.5 1.95
            CHANNELS 3 Zrotation Xrotation Yrotation
            End Site
            {
              OFFSET 0 0 1
            }
          }
        }
      }
    }
  }
  JOINT RHipJoint
  {
    OFFSET 0 0 0
    CHANNELS 3 Zrotation Xrotation Yrotation
    JOINT RightUpLeg
    {
      OFFSET -1.8 -1.4 0.085
      CHANNELS 3 Zrotation Xrotation Yrotation
      JOINT RightLeg
      {
        OFFSET -2.215 -6 0
        CHANNELS 3 Zrotation Xrotation Yrotation
        JOINT RightFoot
        {
          OFFSET -2.5 -6.9 0
          CHANNELS 3 Zrotation Xrotation Yrotation
          JOINT RightToeBase
          {
            OFFSET -0.2 -0.5 1.95
            CHANNELS 3 Zrotation Xrotation Yrotation
            End Site
            {
              OFFSET 0 0 1
            }
          }
        }
      }
    }
  }
  JOINT LowerBack
  {
    OFFSET 0 0 0
    CHANNELS 3 Zrotation Xrotation Yrotation
    JOINT Spine
    {
      OFFSET -0.087 1.94 -0.2889
      CHANNELS 3 Zrotation Xrotation Yrotation
      JOINT Spine1
      {
        OFFSET 0 1.95 0.06
        CHANNELS 3 Zrotation Xrotation Yrotation
        JOINT Neck
        {
          OFFSET 0 0 0
          CHANNELS 3 Zrotation Xrotation Yrotation
          JOINT Neck1
          {
            OFFSET 0 1.6 0.34
            CHANNELS 3 Zrotation Xrotation Yrotation
            JOINT Head
            {
              OFFSET 0 1.667 -0.24
              CHANNELS 3 Zrotation Xrotation Yrotation
              End Site
              {
                OFFSET 0 1.686 -0.12
              }
            }
          }
        }
        JOINT LeftShoulder
        {
          OFFSET 0 0 0
          CHANNELS 3 Zrotation Xrotation Yrotation
          JOINT LeftArm
          {
            OFFSET 2.7 1.55 -0.73
            CHANNELS 3 Zrotation Xrotation Yrotation
            JOINT LeftForeArm
            {
              OFFSET 5.45 0 0
              CHANNELS 3 Zrotation Xrotation Yrotation
              JOINT LeftHand
              {
                OFFSET 3.45 0 0
                CHANNELS 3 Zrotation Xrotation Yrotation
                JOINT LeftFingerBase
                {
                  OFFSET 0 0 0
                  CHANNELS 3 Zrotation Xrotation Yrotation
                  JOINT LeftHandIndex1
                  {
                    OFFSET 0.75 0 0
                    CHANNELS 3 Zrotation Xrotation Yrotation
                    End Site
                    {
                      OFFSET 0.6 0 0
                    }
                  }
                }
                JOINT LThumb
                {
                  OFFSET 0 0 0
                  CHANNELS 3 Zrotation Xrotation Yrotation
                  End Site
                  {
                    OFFSET 0.59 0 0.59
                  }
                }
              }
            }
          }
        }
        JOINT RightShoulder
        {
          OFFSET 0 0 0
          CHANNELS 3 Zrotation Xrotation Yrotation
          JOINT RightArm
          {
            OFFSET -2.7 1.55 -0.73
            CHANNELS 3 Zrotation Xrotation Yrotation
            JOINT RightForeArm
            {
              OFFSET -5.45 0 0
              CHANNELS 3 Zrotation Xrotation Yrotation
              JOINT RightHand
              {
                OFFSET -3.45 0 0
                CHANNELS 3 Zrotation Xrotation Yrotation
                JOINT RightFingerBase
                {
                  OFFSET 0 0 0
                  CHANNELS 3 Zrotation Xrotation Yrotation
                  JOINT RightHandIndex1
                  {
                    OFFSET -0.75 0 0
                    CHANNELS 3 Zrotation Xrotation Yrotation
                    End Site
                    {
                      OFFSET -0.6 0 0
                    }
                  }
                }
                JOINT RThumb
                {
                  OFFSET 0 0 0
                  CHANNELS 3 Zrotation Xrotation Yrotation
                  End Site
                  {
                    OFFSET -0.59 0 0.59
                  }
                }
              }
            }
          }
        }
      }
    }
  }
}
MOTION
Frames:	8
Frame Time:	0.00833333
-7.77009 17.8167 -13.9937 5.80435 -11.7885 -138.2 8.82781e-032 1.59028e-015 -3.18055e-015 -9.82575 -22.5009 -3.36525 16.6887 -16.531 54.5931 -22.8706 32.3161 21.9661 1.10348e-032 7.95139e-016 -7.95139e-016 8.82781e-032 1.59028e-015 -3.18055e-015 21.7235 -12.1271 10.1671 -6.87904 10.97 -23.9655 4.82947 -17.114 5.62893 4.77083e-015 0 -0 8.82781e-032 1.59028e-015 -3.18055e-015 -20.7595 -11.7615 -5.42768 16.6791 3.04143 -6.05994 1.45597 -14.46 2.55646 0.574468 22.5194 2.33219 -11.3675 3.41194 11.2719 -20.1695 4.74429 -14.1745 -74.7732 -37.4083 -47.2159 -122.772 -41.4812 -179.506 74.3221 18.4901 36.1657 -1.56734e-006 -2.2991e-007 3.42098e-006 5.72592e-008 2.9039e-008 1.68186e-006 -1.59028e-015 -3.18055e-015 -6.36111e-015 19.1881 0.496382 -1.58765 49.383 -18.6279 5.25122 8.96077 51.5932 0.499026 -15.674 -5.68437 8.14092 -3.18055e-015 -3.18055e-015 -1.59028e-015 -4.23313e-007 5.20607e-008 4.65625e-009 -0 -3.18055e-015 -0 
-7.79438 17.8064 -13.9755 7.2604 -12.3109 -139.227 -2.64834e-031 1.59028e-015 9.54166e-015 -8.61587 -23.6695 -2.78529 16.7225 -16.4601 54.8186 -23.2029 31.8226 21.8229 -3.18055e-015 0 7.95139e-016 -2.64834e-031 1.59028e-015 9.54166e-015 22.7729 -12.4932 11.3337 -6.81802 9.3013 -24.2012 4.42606 -16.6864 5.43207 2.18663e-015 -1.19271e-015 -0 -2.64834e-031 1.59028e-015 9.54166e-015 -20.8023 -14.1968 -6.19314 17.1932 4.15761 -6.8184 1.76577 -14.4052 2.67101 0.863399 22.5713 2.36459 -11.4777 3.44462 12.0254 -19.9712 4.95888 -15.0928 -74.2593 -36.9729 -47.7465 -122.593 -34.5014 179.891 74.9186 15.932 32.0007 -1.56734e-006 -2.2991e-007 3.42098e-006 5.72592e-008 2.9039e-008 1.68186e-006 -1.59028e-015 0 3.18055e-015 17.8578 0.383647 -1.93115 48.2047 -19.8717 5.02069 8.45872 54.3525 -0.0578623 -4.70761 0.837701 -2.40569 -1.59028e-015 3.18055e-015 -0 -4.23313e-007 5.20607e-008 4.65626e-009 -1.59028e-015 3.18055e-015 -0 
-7.81104 17.7808 -13.9616 10.9649 -12.1317 -139.152 -0 -3.18055e-015 -0 -5.0571 -26.9257 -0.974312 15.5947 -15.8991 53.1343 -23.5157 31.5993 21.7687 -6.36111e-015 -1.98785e-015 -0 -0 -3.18055e-015 -0 25.9947 -11.9632 13.7659 -6.86575 4.88521 -25.4719 3.11184 -15.1824 4.69091 7.95139e-016 -3.97569e-016 -0 -0 -3.18055e-015 -0 -17.9821 -17.9025 -7.23828 16.7015 5.63734 -8.05276 2.09343 -14.3496 2.79782 1.16694 22.6234 2.40497 -11.666 3.60863 12.8635 -19.7499 5.17872 -16.0476 -73.4897 -36.4707 -48.0998 -122.693 -25.7478 179.734 75.6346 12.672 28.2782 -1.56734e-006 -2.2991e-007 3.42098e-006 5.72592e-008 2.9039e-008 1.68186e-006 6.36111e-015 0 -3.18055e-015 16.7231 0.293137 -2.23656 46.9074 -20.9453 4.75027 7.78947 52.9721 0.968661 -0.992767 2.73763 -5.19508 0 0 -3.97569e-015 -4.23313e-007 5.20607e-008 4.65625e-009 -1.59028e-015 0 -3.18055e-015 
-7.82477 17.7487 -13.9483 15.598 -11.4182 -138.511 5.29669e-031 -3.18055e-015 9.54166e-015 -0.00952746 -30.9451 1.66093 13.9536 -14.936 50.465 -23.8054 31.5373 21.764 3.18055e-015 1.59028e-015 -0 5.29669e-031 -3.18055e-015 9.54166e-015 30.0926 -10.7441 16.5932 -7.2702 -0.770264 -27.3895 1.42775 -13.134 3.70302 5.1684e-015 -3.97569e-016 -0 5.29669e-031 -3.18055e-015 9.54166e-015 -13.7633 -21.8357 -8.43417 15.6741 7.14743 -9.49951 2.42704 -14.2839 2.9356 1.47285 22.6848 2.45562 -11.9153 3.86536 13.7658 -19.4997 5.40458 -17.0563 -72.508 -35.9133 -48.3214 -123.135 -16.3263 179.818 75.7207 9.14611 24.702 -1.56734e-006 -2.2991e-007 3.42098e-006 5.72592e-008 2.9039e-008 1.68186e-006 6.36111e-015 -3.18055e-015 3.18055e-015 15.6793 0.222846 -2.50091 45.5224 -21.8704 4.47216 7.10248 48.851 2.90967 -2.32832 1.98165 -3.8329 -1.59028e-015 -3.18055e-015 4.77083e-015 -4.23313e-007 5.20607e-008 4.65626e-009 -1.59028e-015 -3.18055e-015 4.77083e-015 
-7.84478 17.7262 -13.927 19.0806 -10.3194 -138.055 -7.95139e-016 0 -0 4.69588 -33.6414 4.33059 12.6004 -13.9388 48.0841 -24.0662 31.4509 21.7398 -3.18055e-015 0 -1.59028e-015 -7.95139e-016 0 -0 33.1902 -9.02518 18.432 -7.88224 -5.62726 -29.0035 0.0735839 -11.298 2.85729 1.78906e-015 1.98785e-015 -0 -7.95139e-016 0 -0 -10.0057 -24.1536 -9.38141 14.642 8.04257 -10.7179 2.74993 -14.1884 3.07738 1.76605 22.7757 2.51435 -12.1787 4.13212 14.6845 -19.1922 5.63285 -18.1411 -71.3157 -35.2858 -48.4163 -123.956 -7.99255 179.953 73.6862 5.74966 20.4731 -1.56734e-006 -2.2991e-007 3.42098e-006 5.72592e-008 2.9039e-008 1.68186e-006 5.29669e-031 -3.18055e-015 9.54166e-015 14.6484 0.165024 -2.73645 44.0938 -22.6857 4.19069 6.85299 44.5498 4.63833 -4.84977 0.437733 -1.24165 6.36111e-015 -6.36111e-015 -3.18055e-015 -4.23313e-007 5.20607e-008 4.65626e-009 6.36111e-015 -6.36111e-015 -3.18055e-015 
-7.88068 17.7295 -13.8886 19.3885 -8.91508 -138.509 -2.38542e-015 -3.18055e-015 -0 6.64187 -33.0045 5.92502 12.1344 -13.5504 47.1721 -24.2941 31.1557 21.6288 3.18055e-015 -1.59028e-015 -1.59028e-015 -2.38542e-015 -3.18055e-015 -0 33.6246 -6.9181 17.9218 -8.01809 -7.9705 -29.0162 -0.348697 -10.4252 2.51116 2.98177e-015 7.95139e-016 -3.18055e-015 -2.38542e-015 -3.18055e-015 -0 -8.34988 -23.0055 -9.57033 14.0398 7.6813 -11.2536 3.04596 -14.043 3.21672 2.03193 22.9162 2.57939 -12.4056 4.33028 15.5742 -18.7976 5.86091 -19.3292 -69.9078 -34.5691 -48.389 -125.076 -2.49026 -180 67.9272 2.79888 14.7323 -1.56734e-006 -2.2991e-007 3.42098e-006 5.72592e-008 2.9039e-008 1.68186e-006 -1.76556e-031 -3.18055e-015 -3.18055e-015 13.5542 0.112342 -2.95499 42.6614 -23.4183 3.9076 6.73713 42.592 5.60683 -5.02171 -0.0924676 -0.217078 0 6.36111e-015 -0 -4.23313e-007 5.20607e-008 4.65625e-009 0 6.36111e-015 -0 
-7.94277 17.7671 -13.8237 15.7312 -6.69318 -139.966 -7.95139e-016 7.95139e-016 -3.18055e-015 5.00099 -28.0277 6.22621 12.5753 -13.9597 47.7854 -24.5054 30.5965 21.4102 -1.10348e-031 1.98785e-015 3.18055e-015 -7.95139e-016 7.95139e-016 -3.18055e-015 31.0855 -3.69747 14.2782 -7.3112 -7.65034 -26.7558 0.274451 -10.6202 2.72001 -9.93923e-017 1.19271e-015 3.18055e-015 -7.95139e-016 7.95139e-016 -3.18055e-015 -8.92016 -17.0056 -8.81295 13.73 5.56531 -10.9492 3.31816 -13.8369 3.35898 2.27187 23.1172 2.65592 -12.6076 4.46207 16.4607 -18.2873 6.10606 -20.7108 -68.173 -33.7092 -48.2235 -126.483 -0.41481 -180 57.1111 -0.0361282 6.63403 -1.56734e-006 -2.2991e-007 3.42098e-006 5.72592e-008 2.9039e-008 1.68186e-006 3.18055e-015 -1.59028e-015 3.18055e-015 12.3883 0.0677538 -3.1548 41.1923 -23.9118 3.58239 6.4786 42.9927 6.17628 -3.32034 -0.06018 -0.259299 -7.95139e-015 6.36111e-015 -3.18055e-015 -4.23313e-007 5.20607e-008 4.65626e-009 -7.95139e-015 6.36111e-015 -3.18055e-015 
-8.0167 17.8227 -13.7456 10.0984 -3.90353 -141.834 3.97569e-016 1.98785e-015 -0 1.53738 -20.7499 5.96823 13.5236 -14.7506 49.2236 -24.6949 29.9198 21.1454 -4.96564e-032 3.57812e-015 7.95139e-016 3.97569e-016 1.98785e-015 -0 27.5574 0.273901 9.05022 -6.35738 -5.7483 -23.3237 1.47191 -11.3911 3.22877 -2.48481e-015 -3.97569e-016 -0 3.97569e-016 1.98785e-015 -0 -10.9554 -8.35809 -7.77874 13.6233 2.48151 -10.2161 3.57164 -13.5906 3.5027 2.49187 23.3581 2.74056 -12.7971 4.56861 17.345 -17.6972 6.34915 -22.1916 -66.2281 -32.7614 -47.9519 -128.205 -0.298798 -180 42.9932 -2.4989 -2.74791 -1.56734e-006 -2.2991e-007 3.42098e-006 5.72592e-008 2.9039e-008 1.68186e-006 -6.36111e-015 -3.18055e-015 -6.36111e-015 11.1995 0.0325529 -3.33108 39.6989 -24.2903 3.25095 6.13546 44.3968 6.56495 -1.25846 -0.028564 -0.310005 1.59028e-015 -6.36111e-015 -3.18055e-015 -4.23313e-007 5.20607e-008 4.65626e-009 1.59028e-015 -6.36111e-015 -3.18055e-015 
